# xmcd
# 
# Track frame offsets:
#     150
#     16402
#     28720
#     43007
#     67099
#     89557
#     112482
#     123997
#     140893
#     158366
#     180030
#     193791
# 
# Disc length: 3056
# 
# Revision: 0
# Processed by: cddbd v1.5.2PL0 Copyright (c) Steve Scherf et al.
# Submitted via: fre:ac v1.0.17
# 
DISCID=a80bee0c
DTITLE=Split Whiskers - Money Ain't Everything
DYEAR=2013
DGENRE=Blues
TTITLE0=Little Did She Know
TTITLE1=She Loves My Automobile
TTITLE2=Bee Sting
TTITLE3=The Spider and the Fly
TTITLE4=Money Ain't Everything
TTITLE5=I'll Play the Blues For You
TTITLE6=Never Made the Call
TTITLE7=Call Me the Breeze
TTITLE8=Big Brother
TTITLE9=Soul On Fire
TTITLE10=Waitin' On You
TTITLE11=Catfish
EXTD=www.splitwhiskers.com
EXTT0=
EXTT1=
EXTT2=
EXTT3=
EXTT4=
EXTT5=
EXTT6=
EXTT7=
EXTT8=
EXTT9=
EXTT10=
EXTT11=
PLAYORDER=
